<?xml version="1.0" encoding="UTF-8" standalone="no"?>
<!DOCTYPE svg PUBLIC "-//W3C//DTD SVG 1.1//EN" "http://www.w3.org/Graphics/SVG/1.1/DTD/svg11.dtd">
<svg width="100%" height="100%" viewBox="0 0 1588 1727" version="1.1" xmlns="http://www.w3.org/2000/svg" xmlns:xlink="http://www.w3.org/1999/xlink" xml:space="preserve" xmlns:serif="http://www.serif.com/" style="fill-rule:evenodd;clip-rule:evenodd;stroke-linejoin:round;stroke-miterlimit:2;">
    <g transform="matrix(5.55556,0,0,5.55556,-893.67,-898.672)">
        <g transform="matrix(1,0,0,1,-5.8324,-44.1341)">
            <path d="M431.574,516.736L222.883,516.736C223.352,458.831 241.992,421.847 255.062,403C262.149,392.769 267.587,387.877 267.587,387.877L379.801,382.14C379.801,382.14 400.148,399.812 412.236,425.396C422.14,446.361 431.236,476.499 431.574,516.736Z" style="fill:rgb(245,222,213);fill-rule:nonzero;"/>
        </g>
        <g transform="matrix(1,0,0,1,-5.8324,-44.1341)">
            <path d="M267.894,248.176C259.663,250.718 251.389,254.029 244.013,258.33C241.866,259.583 239.811,260.975 237.861,262.504C235.539,248.253 228.431,234.756 217.615,225.169C219.816,223.746 222.714,224.314 225.231,225.042C240.919,229.499 255.578,237.486 267.894,248.176Z" style="fill:rgb(245,222,213);fill-rule:nonzero;"/>
        </g>
        <g transform="matrix(1,0,0,1,-5.8324,-44.1341)">
            <path d="M237.861,262.504C229.428,269.087 222.817,278.072 218.006,288.249C211.737,270.094 210.387,250.231 214.334,231.428C214.83,229.065 215.565,226.498 217.579,225.186L217.615,225.169C228.431,234.756 235.539,248.253 237.861,262.504Z" style="fill:rgb(215,138,128);fill-rule:nonzero;"/>
        </g>
        <g transform="matrix(1,0,0,1,-5.8324,-44.1341)">
            <path d="M409.859,325.175C412.528,356.034 401.817,389.171 317.751,403.298L317.689,403.306C245.99,408.976 221.682,388.806 212.891,363.994C211.274,359.414 210.176,354.671 209.414,349.911C206.269,330.307 209.034,307.196 218.006,288.249C222.817,278.072 229.428,269.087 237.861,262.504C239.811,260.975 241.866,259.583 244.013,258.33C251.389,254.029 259.664,250.718 267.894,248.176C276.44,245.545 284.935,243.721 292.314,242.485C294.165,242.182 295.946,241.912 297.629,241.667L297.691,241.659C297.788,241.635 297.887,241.623 297.975,241.624C302.026,241.199 306.61,240.834 311.503,240.643C316.842,240.422 322.568,240.391 328.4,240.709C337.002,241.174 345.833,242.374 354.033,244.752C356.42,245.446 358.752,246.297 361.016,247.306C370.796,251.641 379.393,258.75 386.535,267.464C390.761,272.61 394.479,278.306 397.65,284.333C404.452,297.28 408.694,311.682 409.859,325.175Z" style="fill:rgb(245,222,213);fill-rule:nonzero;"/>
        </g>
        <g transform="matrix(1,0,0,1,-5.8324,-44.1341)">
            <path d="M371.565,206.17C363.417,218.098 359.803,232.918 361.016,247.306C358.752,246.297 356.42,245.446 354.033,244.752C345.833,242.374 337.002,241.174 328.4,240.709C337.748,227.346 350.026,216.035 364.16,207.897C366.424,206.58 369.097,205.324 371.565,206.17Z" style="fill:rgb(245,222,213);fill-rule:nonzero;"/>
        </g>
        <g transform="matrix(1,0,0,1,-5.8324,-44.1341)">
            <path d="M386.536,267.464C379.393,258.75 370.796,251.641 361.016,247.306C359.803,232.918 363.417,218.098 371.565,206.17L371.604,206.178C373.89,206.96 375.214,209.273 376.27,211.445C384.682,228.722 388.201,248.318 386.536,267.464Z" style="fill:rgb(215,138,128);fill-rule:nonzero;"/>
        </g>
        <g transform="matrix(1,0,0,1,-5.8324,-44.1341)">
            <path d="M322.031,246.465C321.806,246.779 321.571,247.105 321.358,247.429" style="fill:rgb(215,138,128);fill-rule:nonzero;"/>
        </g>
        <g transform="matrix(1,0,0,1,-5.8324,-44.1341)">
            <path d="M277.862,349.484C313.519,326.38 287.713,286.656 278.282,254.813C277.368,251.729 276.904,248.689 276.815,245.703C273.877,246.436 270.89,247.254 267.894,248.176C255.578,237.486 240.918,229.499 225.231,225.042C222.714,224.314 219.816,223.746 217.615,225.169C228.431,234.756 235.539,248.253 237.86,262.504C229.428,269.087 222.817,278.072 218.006,288.249C209.034,307.196 206.269,330.307 209.414,349.911C209.581,350.953 209.771,351.993 209.972,353.032C230.962,364.736 258.407,361.923 277.862,349.484Z" style="fill:rgb(231,153,91);fill-rule:nonzero;"/>
        </g>
        <g transform="matrix(1,0,0,1,-5.8324,-44.1341)">
            <path d="M397.65,284.333C381.326,289.725 363.463,289.74 346.649,282.245C328.445,274.12 315.919,258.388 311.503,240.643C316.842,240.422 322.568,240.391 328.4,240.709C337.747,227.346 350.026,216.035 364.16,207.898C366.424,206.58 369.097,205.324 371.565,206.17C363.417,218.098 359.803,232.918 361.016,247.306C370.796,251.641 379.393,258.75 386.535,267.464C390.761,272.61 394.479,278.306 397.65,284.333Z" style="fill:rgb(86,69,69);fill-rule:nonzero;"/>
        </g>
        <g transform="matrix(1,0,0,1,-5.8324,-44.1341)">
            <path d="M292.92,482.308C287.733,495.673 277.676,505.806 268.733,516.737L222.883,516.737C223.352,458.831 241.992,421.847 255.062,403C261.745,411.899 271.518,419.379 278.463,427.056C292.374,442.419 300.836,461.921 292.92,482.308Z" style="fill:rgb(208,120,54);fill-rule:nonzero;"/>
        </g>
        <g transform="matrix(1,0,0,1,-5.8324,-44.1341)">
            <path d="M359.558,329.564C345.42,329.564 333.175,319.023 331.399,304.632C330.183,294.778 334.167,285.482 341.203,279.496C342.956,280.489 344.773,281.407 346.649,282.245C355.737,286.296 365.13,288.153 374.423,288.153C377.795,288.153 381.155,287.909 384.481,287.435C386.18,290.516 387.332,293.967 387.789,297.673C389.711,313.245 378.645,327.426 363.073,329.348C361.893,329.493 360.718,329.564 359.558,329.564Z" style="fill:rgb(242,210,199);fill-rule:nonzero;"/>
        </g>
        <g transform="matrix(1,0,0,1,-5.8324,-44.1341)">
            <path d="M374.423,288.153C365.13,288.153 355.737,286.296 346.649,282.245C344.773,281.407 342.956,280.489 341.203,279.496C345.286,276.022 350.397,273.663 356.115,272.957C357.295,272.812 358.47,272.74 359.63,272.74C370.128,272.74 379.581,278.551 384.481,287.435C381.155,287.909 377.795,288.153 374.423,288.153Z" style="fill:rgb(71,49,49);fill-rule:nonzero;"/>
        </g>
        <g transform="matrix(1,0,0,1,-5.8324,-44.1341)">
            <path d="M385.342,305.223C386.817,317.173 381.027,326.173 371.554,331.2C367.509,333.358 362.802,334.784 357.702,335.414C347.542,336.667 338.119,334.47 331.712,328.888C327.367,325.101 324.411,319.738 323.561,312.847C321.456,295.786 333.583,280.244 350.634,278.14C367.695,276.034 383.237,288.162 385.342,305.223Z" style="fill:rgb(159,204,199);fill-rule:nonzero;"/>
        </g>
        <g transform="matrix(1,0,0,1,-5.8324,-44.1341)">
            <path d="M323.284,310.589C321.128,286.031 341.285,271.561 364.424,276.956C376.85,280.111 385.358,292.735 385.339,305.219C382.559,291.802 372.118,280.17 357.886,279.839C337.888,278.952 325.381,290.802 323.284,310.589Z" style="fill:rgb(118,44,44);fill-rule:nonzero;"/>
        </g>
        <g transform="matrix(1,0,0,1,-5.8324,-44.1341)">
            <path d="M252.596,342.764C238.459,342.764 226.213,332.222 224.437,317.832C222.515,302.26 233.581,288.079 249.153,286.157C250.335,286.011 251.507,285.94 252.668,285.94C266.804,285.94 279.052,296.483 280.827,310.873C282.749,326.444 271.683,340.625 256.111,342.547C254.93,342.693 253.757,342.764 252.596,342.764Z" style="fill:rgb(225,128,67);fill-rule:nonzero;"/>
        </g>
        <g transform="matrix(1,0,0,1,-5.8324,-44.1341)">
            <path d="M290.427,316.936C291.277,323.827 289.715,329.748 286.42,334.477C281.563,341.449 272.957,345.872 262.797,347.125C257.696,347.755 252.784,347.515 248.346,346.404C237.937,343.842 230.122,336.521 228.646,324.56C226.54,307.499 238.668,291.957 255.729,289.851C272.78,287.747 288.322,299.875 290.427,316.936Z" style="fill:rgb(159,204,199);fill-rule:nonzero;"/>
        </g>
        <g transform="matrix(1,0,0,1,-5.8324,-44.1341)">
            <path d="M290.147,314.678C283.289,295.98 268.295,287.546 249.107,293.263C235.386,297.04 228.079,310.87 228.648,324.556C224.605,306.46 235.617,290.527 254.083,288.074C272.483,284.86 287.404,296.486 290.147,314.678Z" style="fill:rgb(118,44,44);fill-rule:nonzero;"/>
        </g>
        <g transform="matrix(1,0,0,1,-5.8324,-44.1341)">
            <path d="M288.502,348.469C289.644,353.803 295.869,356.367 300.102,353.088C305.368,348.984 307.836,341.758 309.214,335.393C311.239,338.873 313.444,343.878 316.259,346.448C320.324,350.539 325.872,348.839 328.673,344.13C330.195,341.808 331.038,338.956 332.009,336.154C332.207,354.216 315.862,358.219 308.137,341.719L311.82,341.298C310.598,345.592 308.398,349.555 305.331,352.797C303.252,355.02 300.35,356.989 297.142,357.017C292.471,357.286 288.038,352.96 288.502,348.469Z" style="fill:rgb(118,44,44);fill-rule:nonzero;"/>
        </g>
        <g transform="matrix(1,0,0,1,-5.8324,-44.1341)">
            <path d="M309.959,338.875C309.959,338.875 294.328,333.903 295.218,330.411C296.11,326.93 308.46,326.727 308.46,326.727C308.46,326.727 320.479,323.922 322.19,327.082C323.902,330.253 309.959,338.875 309.959,338.875Z" style="fill:rgb(215,138,128);fill-rule:nonzero;"/>
        </g>
        <g transform="matrix(1,0,0,1,-5.8324,-44.1341)">
            <path d="M310.318,385.69L310.287,385.69C313.961,380.579 317.547,376.437 322.032,372.023C323.054,378.715 317.095,385.69 310.318,385.69Z" style="fill:rgb(241,205,191);fill-rule:nonzero;"/>
        </g>
        <g transform="matrix(1,0,0,1,-5.8324,-44.1341)">
            <path d="M283.266,307.353C284.669,318.721 276.591,329.074 265.223,330.477C253.855,331.88 243.502,323.801 242.099,312.434C240.696,301.066 248.775,290.713 260.143,289.31C271.511,287.907 281.863,295.985 283.266,307.353Z" style="fill:rgb(94,34,34);fill-rule:nonzero;"/>
        </g>
        <g transform="matrix(1,0,0,1,-5.8324,-44.1341)">
            <path d="M369.095,296.762C370.498,308.13 362.42,318.482 351.052,319.885C339.684,321.288 329.331,313.21 327.928,301.842C326.525,290.474 334.604,280.121 345.972,278.718C357.34,277.315 367.692,285.394 369.095,296.762Z" style="fill:rgb(94,34,34);fill-rule:nonzero;"/>
        </g>
        <g transform="matrix(1,0,0,1,-5.8324,-44.1341)">
            <path d="M347.532,343.906C378.419,330.079 411.955,321.979 445.72,319.82L452.483,319.505L445.75,320.174C412.149,323.679 379.037,331.721 347.532,343.906Z" style="fill:rgb(94,34,34);fill-rule:nonzero;"/>
        </g>
        <g transform="matrix(1,0,0,1,-5.8324,-44.1341)">
            <path d="M350.174,348.173C378.311,340.993 407.95,339.428 436.728,343.251L442.47,344.124L436.689,343.604C407.818,341.135 378.63,342.72 350.174,348.173Z" style="fill:rgb(94,34,34);fill-rule:nonzero;"/>
        </g>
        <g transform="matrix(1,0,0,1,-5.8324,-44.1341)">
            <path d="M350.937,351.986C373.129,354.375 394.868,361.801 413.917,373.434C411.766,372.393 408.588,370.839 406.375,369.828C388.74,361.563 370.049,355.693 350.937,351.986Z" style="fill:rgb(94,34,34);fill-rule:nonzero;"/>
        </g>
        <g transform="matrix(1,0,0,1,-5.8324,-44.1341)">
            <path d="M274.427,352.927C240.906,348.767 206.83,349.016 173.386,353.785L166.693,354.773L173.329,353.435C206.608,347.32 241.104,347.024 274.427,352.927Z" style="fill:rgb(94,34,34);fill-rule:nonzero;"/>
        </g>
        <g transform="matrix(1,0,0,1,-5.8324,-44.1341)">
            <path d="M272.901,357.709C243.975,359.336 215.275,364.896 187.871,374.309L182.39,376.219L187.748,373.976C214.734,363.271 243.862,357.585 272.901,357.709Z" style="fill:rgb(94,34,34);fill-rule:nonzero;"/>
        </g>
        <g transform="matrix(1,0,0,1,-5.8324,-44.1341)">
            <path d="M273.088,361.593C255.452,369.835 238.747,380.073 223.651,392.377C221.753,393.894 219.059,396.165 217.212,397.708C232.861,381.793 252.142,369.306 273.088,361.593Z" style="fill:rgb(94,34,34);fill-rule:nonzero;"/>
        </g>
        <g transform="matrix(1,0,0,1,-5.8324,-44.1341)">
            <path d="M322.687,364.119C321.721,368.144 319.564,371.623 315.078,372.177C306.939,373.181 303.479,363.596 302.145,357.962C301.61,355.674 301.43,354.035 301.43,354.035C308.234,349.531 309.892,340.767 309.892,340.767C313.402,350.489 322.81,350.318 322.81,350.318C322.81,350.318 324.183,357.872 322.687,364.119Z" style="fill:rgb(118,44,44);fill-rule:nonzero;"/>
        </g>
        <g transform="matrix(1,0,0,1,-5.8324,-44.1341)">
            <path d="M322.687,364.119C321.721,368.144 319.564,371.623 315.078,372.177C306.939,373.181 303.479,363.596 302.145,357.962C309.555,357.202 316.865,359.38 322.687,364.119Z" style="fill:rgb(215,138,128);fill-rule:nonzero;"/>
        </g>
        <g transform="matrix(1,0,0,1,-5.8324,-44.1341)">
            <path d="M237.861,393.16C251.473,398.286 266.859,402.72 280.788,407.075C285.618,408.58 290.437,410.051 295.181,411.883C276.288,410.842 253.003,404.819 237.861,393.16Z" style="fill:rgb(118,44,44);fill-rule:nonzero;"/>
        </g>
        <g transform="matrix(1,0,0,1,-5.8324,-44.1341)">
            <path d="M394.647,372.25C383.571,386.843 364.592,403.21 346.335,407.027C363.467,397.345 378.666,383.634 394.647,372.25Z" style="fill:rgb(118,44,44);fill-rule:nonzero;"/>
        </g>
        <g transform="matrix(1,0,0,1,-5.8324,-44.1341)">
            <path d="M363.312,244.617C372.71,231.474 385.88,220.849 400.732,214.481C387.799,224.048 375.407,234.009 363.312,244.617Z" style="fill:white;fill-rule:nonzero;"/>
        </g>
        <g transform="matrix(1,0,0,1,-5.8324,-44.1341)">
            <path d="M369.233,247.629C373.251,244.329 377.963,242.043 382.838,240.332C387.737,238.693 392.863,237.613 398.061,237.765C395.652,238.764 393.249,239.59 390.856,240.413C384.116,242.663 376.042,245.65 369.233,247.629Z" style="fill:white;fill-rule:nonzero;"/>
        </g>
        <g transform="matrix(1,0,0,1,-5.8324,-44.1341)">
            <path d="M234.249,260.947C223.141,255.16 211.66,250.808 199.52,247.735C212.167,247.061 225.24,252.049 234.249,260.947Z" style="fill:white;fill-rule:nonzero;"/>
        </g>
        <g transform="matrix(1,0,0,1,-5.8324,-44.1341)">
            <path d="M232.056,263.214C224.225,267.629 215.507,270.414 206.56,271.315C214.386,266.886 223.113,264.128 232.056,263.214Z" style="fill:white;fill-rule:nonzero;"/>
        </g>
    </g>
</svg>
