<svg xmlns="http://www.w3.org/2000/svg" viewBox="0 0 319.1 289.23"><defs><style>.cls-1{isolation:isolate;}.cls-2{fill:#b7847e;}.cls-3{fill:#d78a80;}.cls-4{fill:#cb9b92;}.cls-5,.cls-9{fill:#2b0000;mix-blend-mode:soft-light;}.cls-5{opacity:0.4;}.cls-6{fill:#f5ded5;}.cls-7{fill:#762c2c;}.cls-8{fill:#5e2222;}.cls-9{opacity:0.6;}</style></defs><g class="cls-1"><g id="Слой_2" data-name="Слой 2"><g id="OBJECTS"><path class="cls-2" d="M309.71,192.47c-16.92,73.39-137.93,128.16-104.33,65.06,24.46-32.08,42-70.44,54.19-109.57C286.55,59.89,340.94,124.26,309.71,192.47Z"/><path class="cls-2" d="M92.33,0a60.66,60.66,0,0,1,10,39.05c9.69-4.19,20.44-5.6,31-6.26C124.15,20.79,107.76,1.69,92.33,0Z"/><path class="cls-3" d="M78.12,58.19c6.78-8.27,14.94-15,24.23-19.14a60.66,60.66,0,0,0-10-39C78.85,14.54,77.33,38.92,78.12,58.19Z"/><path class="cls-4" d="M42.47,289.23H248.28c-2.31-65.29-20-96.35-44.08-122.34L93.53,161.44C67.56,180.29,40.26,237.46,42.47,289.23Z"/><path class="cls-4" d="M54,105c-20,78.73,186,109.89,190.3,23.48C269.87,6.45,58.78-18,54,105Z"/><path class="cls-4" d="M193.82,35.11c9.68,4.18,19.32,9.15,27,16.38a60.63,60.63,0,0,1,22.66-33.36C228.38,14.49,206.55,26.9,193.82,35.11Z"/><path class="cls-3" d="M220.83,51.49c7.35,7,12.74,16.13,16.33,26.19,7.26-17.83,14.09-41.32,6.33-59.55A60.63,60.63,0,0,0,220.83,51.49Z"/><path class="cls-3" d="M138,31.15c-.2-.31-.42-.62-.64-.92"/><path class="cls-5" d="M61.42,73.48c-3.74,35.26,48.6,41.71,53.54,6.6C118.7,44.82,66.36,38.37,61.42,73.48Z"/><path class="cls-6" d="M63.74,80.64c-3.93,26.81,34.34,36.84,50.92,22.47C147.17,63.91,73.91,29.39,63.74,80.64Z"/><path class="cls-7" d="M122.66,85.74c-1.41-35.32-52.43-39.92-58.91-5.1.55-40.38,64.21-34.91,58.91,5.1Z"/><path class="cls-5" d="M216.51,92.61c-4.95,35.12-57.28,28.65-53.54-6.6C167.91,50.89,220.25,57.36,216.51,92.61Z"/><path class="cls-6" d="M153.86,91.76c-5,32.95,55,41.1,58.65,7.24C216.61,60.37,159.27,53.29,153.86,91.76Z"/><path class="cls-7" d="M154.12,89.62c4.62-40.12,67.66-29.9,58.39,9.38,2.18-35.38-48.44-43.27-58.39-9.38Z"/><path class="cls-8" d="M99.64,117.37A366.48,366.48,0,0,0,6.39,94.85L0,94.2A268.67,268.67,0,0,1,99.64,117.37Z"/><path class="cls-8" d="M97.13,121.42A304,304,0,0,0,15,117.09l-5.49.49A215.36,215.36,0,0,1,97.13,121.42Z"/><path class="cls-8" d="M96.41,125a232.07,232.07,0,0,0-59.8,20.36A143.91,143.91,0,0,1,96.41,125Z"/><path class="cls-8" d="M169.05,125.93a268.49,268.49,0,0,1,102.28,1.76,368.51,368.51,0,0,0-102.28-1.76Z"/><path class="cls-8" d="M170.5,130.47a216.08,216.08,0,0,1,80.84,15.44l5.09,2.14a305.45,305.45,0,0,0-85.93-17.58Z"/><path class="cls-8" d="M170.32,134.16a144,144,0,0,1,53.05,34.29,231.83,231.83,0,0,0-53.05-34.29Z"/><path class="cls-8" d="M66.74,148.9a152.22,152.22,0,0,0,76.76,28.47C116,181,85.28,169.54,66.74,148.9Z"/><path class="cls-8" d="M138.38,190.47A50.89,50.89,0,0,1,110.19,219c9.08-9.28,19-19.28,28.19-28.48Z"/><path class="cls-8" d="M140.08,202.05a44.16,44.16,0,0,1-17.33,32.55c5.51-10.71,11.55-22,17.33-32.55Z"/><path class="cls-8" d="M141.42,220.79a10.28,10.28,0,0,1-5.75,12.67,18.23,18.23,0,0,1,5.75-12.67Z"/><path class="cls-2" d="M157.22,127.2c-1.58,17.1-8.34,20-25.44,18.37s-30.55-7.5-29-24.6C107.61,82.43,164.53,82.65,157.22,127.2Z"/><path class="cls-7" d="M140.5,122.23c.45,3.78-2.56,8.39-6.89,8.33-7.05-.67-10.25-8.83-11.79-14.79l3.78.44c-6.57,16.23-20.45,12.08-19.16-4.78,5,19.2,12.83,11.58,18.09-2.33.37,8.21,8.9,29.26,16,13.13Z"/><path class="cls-8" d="M123.78,114.16c11.15-3.26,23.68-10.55,1.42-11.54C103.38,98.17,113.78,108.3,123.78,114.16Z"/><path class="cls-9" d="M118.76,128.73a95.72,95.72,0,0,1,11.15,13c-6.44,0-12.12-6.61-11.15-13Z"/></g></g></g></svg>