<svg xmlns="http://www.w3.org/2000/svg" viewBox="0 0 333.99 332.17"><defs><style>.cls-1{isolation:isolate;}.cls-2{fill:#e7995b;}.cls-3{fill:#f5ded5;}.cls-4{fill:#d78a80;}.cls-5{fill:#564545;}.cls-6{fill:#d07836;}.cls-10,.cls-7{fill:#2b0000;mix-blend-mode:soft-light;}.cls-7{opacity:0.4;}.cls-8{fill:#9fccc7;}.cls-9{fill:#762c2c;}.cls-10{opacity:0.6;}.cls-11{fill:#5e2222;}.cls-12{fill:#fff;}.cls-13{fill:#86a7a2;}</style></defs><g class="cls-1"><g id="Слой_2" data-name="Слой 2"><g id="OBJECTS"><path class="cls-2" d="M185.52,313.81C101.27,334.45-6.39,264.94,2.11,173.33c4.33-16.14,18-29.71,35.49-29.35,34.25,3.05,36.57,45.87,47.62,71.1,13.83,43.14,55.24,73.83,100.09,80.36C194.77,296.68,194.48,312,185.52,313.81Z"/><path class="cls-3" d="M85.22,215.08c-33.48,41.13-97.66,11.34-83.11-41.75,4.33-16.14,18-29.71,35.49-29.35C71.85,147,74.17,189.85,85.22,215.08Z"/><path class="cls-3" d="M313.09,332.17H104.39C106.8,263.42,124.46,231,149.1,203.31l112.21-5.73C288.11,218,315.24,277.88,313.09,332.17Z"/><path class="cls-3" d="M149.41,63.61c-10.59,3.37-21.21,7.57-30,14.33A63.85,63.85,0,0,0,99.13,40.61C115.05,38.27,137.15,53.79,149.41,63.61Z"/><path class="cls-4" d="M119.37,77.94c-8.43,6.58-15,15.57-19.85,25.75C93.8,84.53,89.1,58.57,99.13,40.61A63.85,63.85,0,0,1,119.37,77.94Z"/><path class="cls-3" d="M291.37,140.61c21,82.93-195.88,115.75-200.45,24.74C64,36.75,286.31,11.22,291.37,140.61Z"/><path class="cls-3" d="M253.08,21.61a63.93,63.93,0,0,0-10.55,41.13c-10.21-4.41-21.53-5.9-32.62-6.59C219.37,43.67,237.09,23.21,253.08,21.61Z"/><path class="cls-4" d="M268.05,82.9c-7.15-8.71-15.74-15.82-25.52-20.16a63.93,63.93,0,0,1,10.55-41.13C267.18,36.61,268.93,62.89,268.05,82.9Z"/><path class="cls-4" d="M203.54,61.9c-.22.32-.46.64-.67,1"/><path class="cls-2" d="M159.37,164.92c39.53-25.82,3.65-68.76-1-103.78-2.94.73-5.93,1.55-8.92,2.47-12.22-9.8-34.38-25.35-50.28-23a63.85,63.85,0,0,1,20.24,37.33c-25.64,20.52-33.66,59.94-27.89,90.53C112.47,180.17,139.92,177.36,159.37,164.92Z"/><path class="cls-5" d="M279.16,99.77c-33.63,13.16-78.68-7.6-86.15-43.69,5.34-.22,11.07-.25,16.9.07,9.46-12.48,27.18-32.94,43.17-34.54a63.93,63.93,0,0,0-10.55,41.13C258.42,69.75,271,84.23,279.16,99.77Z"/><path class="cls-6" d="M174.43,297.75c-5.19,13.36-15.24,23.49-24.19,34.42H104.39c.47-57.9,19.11-94.89,32.18-113.73C157,240.77,187.8,263.82,174.43,297.75Z"/><path class="cls-7" d="M269.3,113.11c3.94,37.14-51.19,43.94-56.39,7C209,82.93,264.1,76.13,269.3,113.11Z"/><path class="cls-8" d="M266.85,120.66c4.15,28.23-36.17,38.8-53.63,23.67C179,103,256.15,66.68,266.85,120.66Z"/><path class="cls-9" d="M204.8,126c-5.24-42.25,61.26-47.69,62.05-5.37-6.69-36.94-60.71-31.92-62.05,5.37Z"/><path class="cls-7" d="M106,133.27c5.21,37,60.33,30.17,56.39-7C157.13,89.33,102,96.14,106,133.27Z"/><path class="cls-8" d="M171.94,132.37c5.28,34.71-57.89,43.29-61.78,7.63C105.84,99.31,166.23,91.85,171.94,132.37Z"/><path class="cls-9" d="M171.66,130.12c-10.39-35.87-64-27.56-61.5,9.87-9.63-41.61,56.62-51.67,61.5-9.87Z"/><path class="cls-9" d="M170,163.91c7.2,16.25,20.07-3.28,20.72-13.08,6.44,15.49,17.52,19.47,22.79.76.2,18.06-16.15,22.07-23.87,5.57l3.68-.42c-2.16,6.79-6.8,15-14.68,15.72-4.67.26-9.1-4.06-8.64-8.55Z"/><path class="cls-4" d="M191.47,154.31c-11.74-3.43-24.94-11.11-1.5-12.15C213,137.47,202,148.15,191.47,154.31Z"/><path class="cls-10" d="M203.54,187.46a101.3,101.3,0,0,0-11.74,13.67c6.79,0,12.77-7,11.74-13.67Z"/><path class="cls-11" d="M229,159.34a286,286,0,0,1,98.19-24.08l6.76-.32a384.58,384.58,0,0,0-105,24.4Z"/><path class="cls-11" d="M231.69,163.61a229.4,229.4,0,0,1,86.55-4.92l5.74.87a318.49,318.49,0,0,0-92.29,4.05Z"/><path class="cls-11" d="M232.45,167.42a153,153,0,0,1,63,21.45,240.68,240.68,0,0,0-63-21.45Z"/><path class="cls-11" d="M155.94,168.36a382.76,382.76,0,0,0-101,.86l-6.7,1A284.84,284.84,0,0,1,155.94,168.36Z"/><path class="cls-11" d="M154.41,173.15a316.4,316.4,0,0,0-85,16.6l-5.48,1.91A228.49,228.49,0,0,1,154.41,173.15Z"/><path class="cls-11" d="M154.6,177a240.38,240.38,0,0,0-55.88,36.12A152.85,152.85,0,0,1,154.6,177Z"/><path class="cls-9" d="M204.2,179.56c-1,4-3.12,7.5-7.61,8.05-9.58,1.1-12.77-11.94-13.65-18.14,6.81-4.5,8.46-13.27,8.46-13.27a14,14,0,0,0,12.92,9.56S205.69,173.31,204.2,179.56Z"/><path class="cls-4" d="M204.2,179.56c-5,16.21-19.32,5.51-20.54-6.16A27.85,27.85,0,0,1,204.2,179.56Z"/><path class="cls-9" d="M119.37,208.6c18.52,7.05,38.66,12,57.32,18.72-18.89-1-42.18-7.06-57.32-18.72Z"/><path class="cls-9" d="M276.16,187.69c-11.08,14.59-30.06,31-48.31,34.77,17.13-9.68,32.33-23.39,48.31-34.77Z"/><path class="cls-12" d="M244.82,60.06a90.1,90.1,0,0,1,37.42-30.14c-12.93,9.57-25.32,19.53-37.42,30.14Z"/><path class="cls-12" d="M250.74,63.07a47,47,0,0,1,28.83-9.87c-9.27,3.49-19.38,6.94-28.83,9.87Z"/><path class="cls-12" d="M115.76,76.38A159.8,159.8,0,0,0,81,63.17a46.91,46.91,0,0,1,34.73,13.21Z"/><path class="cls-12" d="M113.57,78.65a65.29,65.29,0,0,1-25.5,8.1A65.46,65.46,0,0,1,113.57,78.65Z"/><path class="cls-13" d="M163.9,58.38c-10.55,20.53-43.64,48.74-71,57.68C85.83,83.9,78.07,48.6,71,16.39,100.79,29.86,134.2,45,163.9,58.38Z"/><path class="cls-2" d="M62.93,35.49c4.19-1.31,5.7-6.89,7-10.47C75,40.94,85,32.63,76.85,20.35,99.71,21.55,94,5.56,74.44,13.92c17.24-14.48,2-17.12-4-1.36-3.46-15.19-20.16-17.87-8.2-1-21.55-7.4-15.47,6,1.62,6.15C47,23,43,36.5,63.7,24.09,62.47,27,57.79,34.58,62.93,35.49Z"/><path class="cls-3" d="M118.31,37.78A255.54,255.54,0,0,1,83.2,72c-.51-2.37-4.66-21.21-5.29-24.06a239.68,239.68,0,0,0,19.67-19.5Z"/><path class="cls-3" d="M157.77,55.6a465.06,465.06,0,0,1-66.83,51.52c-.2-.93-4.68-21.29-5-22.79a443.54,443.54,0,0,0,50.14-38.52Z"/></g></g></g></svg>