<?xml version="1.0" encoding="UTF-8" standalone="no"?>
<!DOCTYPE svg PUBLIC "-//W3C//DTD SVG 1.1//EN" "http://www.w3.org/Graphics/SVG/1.1/DTD/svg11.dtd">
<svg width="100%" height="100%" viewBox="0 0 643 646" version="1.1" xmlns="http://www.w3.org/2000/svg" xmlns:xlink="http://www.w3.org/1999/xlink" xml:space="preserve" xmlns:serif="http://www.serif.com/" style="fill-rule:evenodd;clip-rule:evenodd;stroke-linejoin:round;stroke-miterlimit:2;">
    <g transform="matrix(5.55556,0,0,5.55556,-926.272,-1024.26)">
        <path d="M282.391,242.939C282.391,242.939 278.22,250.856 268.906,261.317C262.725,268.272 254.252,276.331 243.223,283.941C234.346,290.067 223.765,295.909 211.393,300.626L209.428,291.683L209.013,289.794L204.416,268.894L203.116,263.02L201.686,256.534L200.801,252.483L196.401,232.467L194.806,225.206L189.467,200.954L216.067,212.976L236.803,222.345L239.467,223.546L254.558,230.371L264.483,234.859L276.254,240.165L282.391,242.939Z" style="fill:rgb(134,167,162);fill-rule:nonzero;"/>
        <path d="M181.42,220.049C182.53,219.939 183.45,219.126 184.137,218.3C186.009,216.027 187.272,213.107 188.145,210.548C188.25,210.226 188.335,209.911 188.429,209.583C188.609,210.298 188.822,211.01 189.09,211.687C189.564,212.935 190.212,214.108 190.987,215.186C191.745,216.224 192.626,217.411 193.866,218.023C194.988,218.565 196.677,218.473 197.727,217.303C198.804,216.116 198.529,214.543 198.374,213.317C197.979,210.273 196.931,207.423 195.341,204.912C196.878,204.95 198.405,204.938 199.966,204.833C203.003,204.616 207.404,204.467 209.549,201.61C210.461,200.378 210.522,198.974 209.788,197.946C208.987,196.796 207.504,196.335 205.963,196.218C201.779,195.927 197.219,196.821 192.924,198.481C193.884,197.656 194.829,196.809 195.71,195.901C196.812,194.787 197.839,193.607 198.785,192.391C199.622,191.309 200.642,190.095 200.974,188.846C201.261,187.79 200.941,186.69 199.887,186.332C198.864,185.974 197.599,186.521 196.634,187.159C192.907,189.587 190.187,193.306 188.962,197.121C188.42,195.15 187.654,193.26 186.652,191.51C185.35,189.238 183.676,187.042 181.594,185.338C180.834,184.714 179.753,184.114 178.525,184.478C177.089,184.901 176.478,186.224 176.484,187.382C176.486,188.738 177.098,190.049 177.621,191.227C178.21,192.527 178.93,193.749 179.762,194.898C180.074,195.317 180.414,195.719 180.754,196.12C179.779,195.737 178.787,195.378 177.765,195.081C176.258,194.656 174.708,194.334 173.107,194.128C171.746,193.969 170.022,193.614 168.56,194.01C167.294,194.342 166.55,195.465 166.766,196.519C167.003,197.736 168.425,198.369 169.456,198.932C173.22,200.986 177.681,202.111 182.383,202.269C180.435,202.967 178.521,203.788 176.66,204.772C175.169,205.555 173.736,206.427 172.351,207.382C171.094,208.241 169.714,209.167 168.717,210.283C167.89,211.2 167.453,212.448 168.311,213.193C169.27,214.031 171.022,213.613 172.344,213.308C175.85,212.488 179.246,210.833 182.193,208.65C181.827,209.299 181.476,209.971 181.16,210.659C180.503,212.068 179.988,213.513 179.599,214.952C179.28,216.162 178.934,217.452 179.249,218.581C179.509,219.485 180.251,220.178 181.42,220.049Z" style="fill:rgb(231,153,91);fill-rule:nonzero;"/>
        <path d="M236.803,222.345C226.222,234.848 214.451,246.28 201.686,256.534L200.801,252.483L196.401,232.467C203.324,226.363 209.875,219.855 216.067,212.976L236.803,222.345Z" style="fill:rgb(245,222,213);fill-rule:nonzero;"/>
        <path d="M276.254,240.165C255.595,259.318 233.199,276.582 209.428,291.683L209.013,289.794L204.416,268.894C222.04,257.254 238.779,244.391 254.558,230.371L264.483,234.859L276.254,240.165Z" style="fill:rgb(245,222,213);fill-rule:nonzero;"/>
    </g>
</svg>
