<svg xmlns="http://www.w3.org/2000/svg" viewBox="0 0 84.96 113.58"><defs><style>.cls-1{fill:#e9a773;}.cls-2{fill:#d78a80;}.cls-3{fill:#f5ded5;}</style></defs><g id="Слой_2" data-name="Слой 2"><g id="OBJECTS"><path class="cls-1" d="M0,94.51c17.8,12.79,58,22.31,85,18L60.36,18.83C41,43.11,19.3,70.33,0,94.51Z"/><path class="cls-2" d="M75.43,31.48c-4.11.71-7.8-3.35-10.45-5.81,2.58,15.66-9.48,13-7.87-1-18.8,10.9-20.9-5.08-.74-6.48-20.64-4.64-9-13.66,2.76-2.87-3.67-14.11,9.28-24,6.51-4.4,15-15.57,15.68-1.58,1.28,5.9,16.59-2.85,25.82,6.82,2.92,5.32C72.14,24.09,79.38,28.5,75.43,31.48Z"/><path class="cls-3" d="M73.46,44.26a1.09,1.09,0,0,0-1.89,1.1C79,58.52,58.94,69.45,52,56c13.62-16.89-7.31-19.58-2.55-.53-14.4,9.65-16.78-9.47-6.9-17.3.92-1.05-.63-2.59-1.56-1.53C29.25,46.14,33.83,68,50.4,57.59,59,72.91,82.11,59.5,73.46,44.26Zm-22.07,3.3c.24-.77,1.42-4,2.75-3.18,1.53,2.85-1.5,6.69-2.94,9.22A11.78,11.78,0,0,1,51.39,47.56Z"/><path class="cls-3" d="M78.92,74.92c-.76-1.18-2.65-.08-1.88,1.1,10.89,14.44-5.57,33.36-17.13,15.66,6.65-17.86-8.44-23.6-2.37-.08-5.13,9.05-20.85,6.77-22.18-3.94C55.1,73.5,33.29,66.53,33.05,86.6,14.42,98.65,5.46,78.43,19.73,65.13c.87-1.09-.68-2.63-1.56-1.53C2.5,78.21,12.52,101.12,33.42,89.07c2.15,11.43,19,13.89,25.17,4.72C71.83,112.52,91.33,90.77,78.92,74.92Zm-42,4.39c5.55-7.27,7.25-1-1.69,5.61A11.82,11.82,0,0,1,36.91,79.31Zm21.83.52a14.19,14.19,0,0,1,.1,9A20.41,20.41,0,0,1,58.74,79.83Z"/></g></g></svg>