<?xml version="1.0" encoding="UTF-8" standalone="no"?>
<!DOCTYPE svg PUBLIC "-//W3C//DTD SVG 1.1//EN" "http://www.w3.org/Graphics/SVG/1.1/DTD/svg11.dtd">
<svg width="100%" height="100%" viewBox="0 0 1067 962" version="1.1" xmlns="http://www.w3.org/2000/svg" xmlns:xlink="http://www.w3.org/1999/xlink" xml:space="preserve" xmlns:serif="http://www.serif.com/" style="fill-rule:evenodd;clip-rule:evenodd;stroke-linejoin:round;stroke-miterlimit:2;">
    <g transform="matrix(5.55556,0,0,5.55556,-660.674,-1825.21)">
        <path d="M304.007,498.374C265.463,506.215 224.337,499.864 190.606,479.311C163.683,462.906 141.496,438.156 128.766,409.248C126.933,405.081 125.177,400.771 123.677,396.366C119.424,383.939 117.155,370.762 120.601,357.888C124.93,341.749 138.601,328.183 156.088,328.544C174.126,328.914 183.695,343.98 189.59,359.056C194.822,372.394 198.942,386.132 203.707,399.641C205.179,403.818 206.708,407.967 208.35,412.087C209.261,414.384 210.258,416.71 211.302,419.036C232.482,450.925 264.514,474.906 303.798,480.004C313.253,481.238 312.969,496.551 304.007,498.374Z" style="fill:rgb(231,153,91);fill-rule:nonzero;"/>
        <path d="M203.707,399.641C194.755,411.28 180.676,418.789 164.851,418.789C147.582,418.789 132.402,409.856 123.677,396.366C119.424,383.939 117.155,370.762 120.601,357.888C124.93,341.749 138.601,328.183 156.088,328.544C174.126,328.914 183.695,343.98 189.59,359.056C194.822,372.394 198.942,386.132 203.707,399.641Z" style="fill:rgb(245,222,213);fill-rule:nonzero;"/>
    </g>
</svg>
